<?xml version="1.0" encoding="UTF-8" ?>
<svg width="264pt" height="419pt" viewBox="0.00 0.00 264.00 419.20" xmlns="http://www.w3.org/2000/svg" xmlns:xlink="http://www.w3.org/1999/xlink">
<g id="graph0" class="graph" transform="scale(1 1) rotate(0) translate(4 415.2)">
<title>%0</title>
<polygon fill="#ffffff" stroke="transparent" points="-4,4 -4,-415.2 260,-415.2 260,4 -4,4"/>
<g id="clust1" class="cluster">
<title>cluster_input</title>
<polygon fill="none" stroke="#000000" points="80,-326.4 80,-403.2 137,-403.2 137,-326.4 80,-326.4"/>
<text text-anchor="middle" x="108.5" y="-386.6" font-family="Monospace" font-size="14.00" fill="#000000">INPUT</text>
</g>
<g id="clust2" class="cluster">
<title>cluster_entry</title>
<polygon fill="none" stroke="#000000" points="142,-164.8 142,-241.6 248,-241.6 248,-164.8 142,-164.8"/>
<text text-anchor="middle" x="195" y="-225" font-family="Monospace" font-size="14.00" fill="#000000">'entry</text>
</g>
<g id="clust3" class="cluster">
<title>cluster_loop</title>
<polygon fill="none" stroke="#000000" points="8,-8 8,-318.4 134,-318.4 134,-8 8,-8"/>
<text text-anchor="middle" x="71" y="-301.8" font-family="Monospace" font-size="14.00" fill="#000000">'loop</text>
</g>
<g id="clust4" class="cluster">
<title>cluster_exit</title>
<polygon fill="none" stroke="#000000" points="169,-80 169,-156.8 221,-156.8 221,-80 169,-80"/>
<text text-anchor="middle" x="195" y="-140.2" font-family="Monospace" font-size="14.00" fill="#000000">'exit</text>
</g>
<!-- i -->
<g id="node1" class="node">
<title>i</title>
<ellipse fill="none" stroke="#000000" cx="108" cy="-352.4" rx="18" ry="18"/>
<text text-anchor="middle" x="108" y="-348.2" font-family="monospace" font-size="14.00" fill="#000000">i</text>
</g>
<!-- i0 -->
<g id="node4" class="node">
<title>i0</title>
<ellipse fill="none" stroke="#000000" cx="108" cy="-267.6" rx="18" ry="18"/>
<text text-anchor="middle" x="108" y="-263.4" font-family="monospace" font-size="14.00" fill="#000000">i0</text>
</g>
<!-- i&#45;&gt;i0 -->
<g id="edge1" class="edge">
<title>i-&gt;i0</title>
<path fill="none" stroke="#000000" stroke-dasharray="5,2" d="M108,-333.9997C108,-322.8112 108,-308.2983 108,-295.6954"/>
<polygon fill="#000000" stroke="#000000" points="111.5001,-295.6731 108,-285.6731 104.5001,-295.6731 111.5001,-295.6731"/>
</g>
<!-- m0 -->
<g id="node2" class="node">
<title>m0</title>
<ellipse fill="none" stroke="#000000" cx="222" cy="-190.8" rx="18" ry="18"/>
<text text-anchor="middle" x="222" y="-186.6" font-family="monospace" font-size="14.00" fill="#000000">m0</text>
</g>
<!-- m1 -->
<g id="node5" class="node">
<title>m1</title>
<ellipse fill="none" stroke="#000000" cx="54" cy="-106" rx="18" ry="18"/>
<text text-anchor="middle" x="54" y="-101.8" font-family="monospace" font-size="14.00" fill="#000000">m1</text>
</g>
<!-- m0&#45;&gt;m1 -->
<g id="edge3" class="edge">
<title>m0-&gt;m1</title>
<path fill="none" stroke="#000000" stroke-dasharray="5,2" d="M210.1885,-176.8938C205.8133,-172.4776 200.5547,-167.9331 195,-164.8 182.9809,-158.0206 177.9866,-161.4656 165,-156.8 134.7693,-145.9392 101.4252,-130.1313 79.2517,-119.0416"/>
<polygon fill="#000000" stroke="#000000" points="80.6915,-115.8477 70.188,-114.4596 77.5334,-122.0948 80.6915,-115.8477"/>
</g>
<!-- m3 -->
<g id="node10" class="node">
<title>m3</title>
<ellipse fill="none" stroke="#000000" cx="195" cy="-106" rx="18" ry="18"/>
<text text-anchor="middle" x="195" y="-101.8" font-family="monospace" font-size="14.00" fill="#000000">m3</text>
</g>
<!-- m0&#45;&gt;m3 -->
<g id="edge9" class="edge">
<title>m0-&gt;m3</title>
<path fill="none" stroke="#000000" stroke-dasharray="5,2" d="M216.5361,-173.6395C212.8278,-161.9926 207.8476,-146.351 203.6104,-133.043"/>
<polygon fill="#000000" stroke="#000000" points="206.9174,-131.8929 200.5484,-123.4261 200.2473,-134.0166 206.9174,-131.8929"/>
</g>
<!-- n0 -->
<g id="node3" class="node">
<title>n0</title>
<ellipse fill="none" stroke="#000000" cx="168" cy="-190.8" rx="18" ry="18"/>
<text text-anchor="middle" x="168" y="-186.6" font-family="monospace" font-size="14.00" fill="#000000">n0</text>
</g>
<!-- i1 -->
<g id="node9" class="node">
<title>i1</title>
<ellipse fill="none" stroke="#000000" cx="108" cy="-190.8" rx="18" ry="18"/>
<text text-anchor="middle" x="108" y="-186.6" font-family="monospace" font-size="14.00" fill="#000000">i1</text>
</g>
<!-- i0&#45;&gt;i1 -->
<g id="edge8" class="edge">
<title>i0-&gt;i1</title>
<path fill="none" stroke="#000000" d="M102.2392,-250.1729C101.2412,-240.6799 100.9984,-228.7202 101.5107,-218.0267"/>
<polygon fill="#000000" stroke="#000000" points="105.0128,-218.1285 102.2747,-207.8936 98.0326,-217.6021 105.0128,-218.1285"/>
</g>
<!-- n2 -->
<g id="node8" class="node">
<title>n2</title>
<ellipse fill="none" stroke="#000000" cx="44" cy="-34" rx="18" ry="18"/>
<text text-anchor="middle" x="44" y="-29.8" font-family="monospace" font-size="14.00" fill="#000000">n2</text>
</g>
<!-- m1&#45;&gt;n2 -->
<g id="edge6" class="edge">
<title>m1-&gt;n2</title>
<path fill="none" stroke="#000000" d="M51.4766,-87.8314C50.3906,-80.0125 49.0961,-70.6923 47.892,-62.0221"/>
<polygon fill="#000000" stroke="#000000" points="51.3305,-61.3368 46.488,-51.9134 44.397,-62.2999 51.3305,-61.3368"/>
</g>
<!-- n1 -->
<g id="node6" class="node">
<title>n1</title>
<ellipse fill="none" stroke="#000000" cx="44" cy="-267.6" rx="18" ry="18"/>
<text text-anchor="middle" x="44" y="-263.4" font-family="monospace" font-size="14.00" fill="#000000">n1</text>
</g>
<!-- m2 -->
<g id="node7" class="node">
<title>m2</title>
<ellipse fill="none" stroke="#000000" cx="54" cy="-190.8" rx="18" ry="18"/>
<text text-anchor="middle" x="54" y="-186.6" font-family="monospace" font-size="14.00" fill="#000000">m2</text>
</g>
<!-- n1&#45;&gt;m2 -->
<g id="edge5" class="edge">
<title>n1-&gt;m2</title>
<path fill="none" stroke="#000000" d="M46.3699,-249.3995C47.553,-240.3132 49.0107,-229.1176 50.334,-218.9549"/>
<polygon fill="#000000" stroke="#000000" points="53.8266,-219.2381 51.6472,-208.8699 46.8852,-218.3342 53.8266,-219.2381"/>
</g>
<!-- n1&#45;&gt;n2 -->
<g id="edge7" class="edge">
<title>n1-&gt;n2</title>
<path fill="none" stroke="#000000" d="M32.6896,-253.4935C30.3539,-249.8246 28.2318,-245.7349 27,-241.6 6.4941,-172.7673 14.3538,-150.7001 27,-80 28.1806,-73.4 30.2435,-66.5076 32.5342,-60.1273"/>
<polygon fill="#000000" stroke="#000000" points="35.862,-61.2267 36.2273,-50.6382 29.3386,-58.6878 35.862,-61.2267"/>
</g>
<!-- m2&#45;&gt;m1 -->
<g id="edge4" class="edge">
<title>m2-&gt;m1</title>
<path fill="none" stroke="#000000" stroke-dasharray="5,2" d="M54,-172.3997C54,-161.2112 54,-146.6983 54,-134.0954"/>
<polygon fill="#000000" stroke="#000000" points="57.5001,-134.0731 54,-124.0731 50.5001,-134.0731 57.5001,-134.0731"/>
</g>
<!-- m2&#45;&gt;m3 -->
<g id="edge10" class="edge">
<title>m2-&gt;m3</title>
<path fill="none" stroke="#000000" stroke-dasharray="5,2" d="M65.3407,-176.7752C69.749,-172.2383 75.1488,-167.648 81,-164.8 104.0016,-153.6041 114.7867,-167.5501 138,-156.8 152.7122,-149.9868 166.3777,-138.0876 176.6382,-127.5177"/>
<polygon fill="#000000" stroke="#000000" points="179.2397,-129.8598 183.474,-120.1479 174.1074,-125.0995 179.2397,-129.8598"/>
</g>
<!-- i1&#45;&gt;i0 -->
<g id="edge2" class="edge">
<title>i1-&gt;i0</title>
<path fill="none" stroke="#000000" stroke-dasharray="5,2" d="M113.7253,-207.8936C114.7411,-217.3281 115.0016,-229.2732 114.5071,-239.9959"/>
<polygon fill="#000000" stroke="#000000" points="111.0016,-239.9437 113.7608,-250.1729 117.9829,-240.4557 111.0016,-239.9437"/>
</g>
</g>
</svg>