<?xml version="1.0" encoding="UTF-8" ?>
<svg width="94pt" height="188pt" viewBox="0.00 0.00 93.59 188.00" xmlns="http://www.w3.org/2000/svg" xmlns:xlink="http://www.w3.org/1999/xlink">
<g id="graph0" class="graph" transform="scale(1 1) rotate(0) translate(4 184)">
<title>%0</title>
<polygon fill="#ffffff" stroke="transparent" points="-4,4 -4,-184 89.5922,-184 89.5922,4 -4,4"/>
<!-- entry -->
<g id="node1" class="node">
<title>entry</title>
<polygon fill="none" stroke="#000000" points="54,-180 0,-180 0,-144 54,-144 54,-180"/>
<text text-anchor="middle" x="27" y="-157.8" font-family="monospace" font-size="14.00" fill="#000000">'entry</text>
</g>
<!-- loop -->
<g id="node2" class="node">
<title>loop</title>
<polygon fill="none" stroke="#000000" points="54,-108 0,-108 0,-72 54,-72 54,-108"/>
<text text-anchor="middle" x="27" y="-85.8" font-family="monospace" font-size="14.00" fill="#000000">'loop</text>
</g>
<!-- entry&#45;&gt;loop -->
<g id="edge1" class="edge">
<title>entry-&gt;loop</title>
<path fill="none" stroke="#000000" d="M21.0476,-143.8314C20.2972,-136.131 20.0763,-126.9743 20.3849,-118.4166"/>
<polygon fill="#000000" stroke="#000000" points="23.8792,-118.6161 21.024,-108.4133 16.8935,-118.1697 23.8792,-118.6161"/>
</g>
<!-- entry&#45;&gt;loop -->
<g id="edge4" class="edge">
<title>entry-&gt;loop</title>
<path fill="none" stroke="#ff0000" d="M32.9524,-143.8314C33.7028,-136.131 33.9237,-126.9743 33.6151,-118.4166"/>
<polygon fill="#ff0000" stroke="#ff0000" points="37.1065,-118.1697 32.976,-108.4133 30.1208,-118.6161 37.1065,-118.1697"/>
</g>
<!-- exit -->
<g id="node3" class="node">
<title>exit</title>
<polygon fill="none" stroke="#000000" points="54,-36 0,-36 0,0 54,0 54,-36"/>
<text text-anchor="middle" x="27" y="-13.8" font-family="monospace" font-size="14.00" fill="#000000">'exit</text>
</g>
<!-- entry&#45;&gt;exit -->
<g id="edge5" class="edge">
<title>entry-&gt;exit</title>
<path fill="none" stroke="#ff0000" d="M52.5052,-143.9627C63.4753,-134.6284 75.1145,-122.2089 81,-108 87.1229,-93.2179 87.1229,-86.7821 81,-72 76.4479,-61.0103 68.454,-51.0911 59.9898,-42.8418"/>
<polygon fill="#ff0000" stroke="#ff0000" points="62.2589,-40.1745 52.5052,-36.0373 57.5501,-45.354 62.2589,-40.1745"/>
</g>
<!-- loop&#45;&gt;loop -->
<g id="edge2" class="edge">
<title>loop-&gt;loop</title>
<path fill="none" stroke="#000000" d="M54.2408,-103.4868C64.0239,-103.7769 72,-99.2813 72,-90 72,-84.1992 68.8843,-80.2678 64.1591,-78.2058"/>
<polygon fill="#000000" stroke="#000000" points="64.6871,-74.7454 54.2408,-76.5132 63.5094,-81.6456 64.6871,-74.7454"/>
</g>
<!-- loop&#45;&gt;exit -->
<g id="edge3" class="edge">
<title>loop-&gt;exit</title>
<path fill="none" stroke="#000000" d="M21.0476,-71.8314C20.2972,-64.131 20.0763,-54.9743 20.3849,-46.4166"/>
<polygon fill="#000000" stroke="#000000" points="23.8792,-46.6161 21.024,-36.4133 16.8935,-46.1697 23.8792,-46.6161"/>
</g>
<!-- loop&#45;&gt;exit -->
<g id="edge6" class="edge">
<title>loop-&gt;exit</title>
<path fill="none" stroke="#ff0000" d="M32.9524,-71.8314C33.7028,-64.131 33.9237,-54.9743 33.6151,-46.4166"/>
<polygon fill="#ff0000" stroke="#ff0000" points="37.1065,-46.1697 32.976,-36.4133 30.1208,-46.6161 37.1065,-46.1697"/>
</g>
</g>
</svg>