<?xml version="1.0" encoding="UTF-8" standalone="no"?>
<!DOCTYPE svg PUBLIC "-//W3C//DTD SVG 1.1//EN"
 "http://www.w3.org/Graphics/SVG/1.1/DTD/svg11.dtd">
<!-- Generated by graphviz version 9.0.0 (0)
 -->
<!-- Title: G Pages: 1 -->
<svg width="148pt" height="191pt"
 viewBox="0.00 0.00 148.38 190.89" xmlns="http://www.w3.org/2000/svg" xmlns:xlink="http://www.w3.org/1999/xlink">
<g id="graph0" class="graph" transform="scale(1 1) rotate(0) translate(4 186.89)">
<title>G</title>
<polygon fill="white" stroke="none" points="-4,4 -4,-186.89 144.38,-186.89 144.38,4 -4,4"/>
<!-- g -->
<g id="node1" class="node">
<title>g</title>
<ellipse fill="none" stroke="black" cx="67.62" cy="-163.45" rx="19.45" ry="19.45"/>
<text text-anchor="middle" x="67.62" y="-159.9" font-family="Monospace" font-size="14.00">Γ</text>
</g>
<!-- a -->
<g id="node2" class="node">
<title>a</title>
<polygon fill="none" stroke="black" points="100.38,-108 34.88,-108 34.88,-72 100.38,-72 100.38,-108"/>
<text text-anchor="middle" x="67.62" y="-86.45" font-family="Monospace" font-size="14.00">&#39;entry</text>
</g>
<!-- g&#45;&gt;a -->
<g id="edge1" class="edge">
<title>g&#45;&gt;a</title>
<path fill="none" stroke="black" d="M67.62,-143.67C67.62,-136.34 67.62,-127.77 67.62,-119.69"/>
<polygon fill="black" stroke="black" points="71.13,-119.93 67.63,-109.93 64.13,-119.93 71.13,-119.93"/>
</g>
<!-- b -->
<g id="node3" class="node">
<title>b</title>
<polygon fill="none" stroke="black" points="57.25,-36 0,-36 0,0 57.25,0 57.25,-36"/>
<text text-anchor="middle" x="28.62" y="-14.45" font-family="Monospace" font-size="14.00">&#39;left</text>
</g>
<!-- a&#45;&gt;b -->
<g id="edge2" class="edge">
<title>a&#45;&gt;b</title>
<path fill="none" stroke="black" d="M57.98,-71.7C53.69,-63.98 48.52,-54.71 43.73,-46.11"/>
<polygon fill="black" stroke="black" points="46.82,-44.46 38.89,-37.43 40.7,-47.87 46.82,-44.46"/>
</g>
<!-- c -->
<g id="node4" class="node">
<title>c</title>
<polygon fill="none" stroke="black" points="140.38,-36 74.88,-36 74.88,0 140.38,0 140.38,-36"/>
<text text-anchor="middle" x="107.62" y="-14.45" font-family="Monospace" font-size="14.00">&#39;right</text>
</g>
<!-- a&#45;&gt;c -->
<g id="edge3" class="edge">
<title>a&#45;&gt;c</title>
<path fill="none" stroke="black" d="M77.51,-71.7C81.97,-63.9 87.33,-54.51 92.29,-45.83"/>
<polygon fill="black" stroke="black" points="95.18,-47.84 97.1,-37.42 89.1,-44.36 95.18,-47.84"/>
</g>
</g>
</svg>
