<?xml version="1.0" encoding="UTF-8" ?>
<svg width="80pt" height="188pt" viewBox="0.00 0.00 80.00 188.00" xmlns="http://www.w3.org/2000/svg" xmlns:xlink="http://www.w3.org/1999/xlink">
<g id="graph0" class="graph" transform="scale(1 1) rotate(0) translate(4 184)">
<title>%0</title>
<polygon fill="#ffffff" stroke="transparent" points="-4,4 -4,-184 76,-184 76,4 -4,4"/>
<!-- entry -->
<g id="node1" class="node">
<title>entry</title>
<polygon fill="none" stroke="#000000" points="54,-180 0,-180 0,-144 54,-144 54,-180"/>
<text text-anchor="middle" x="27" y="-157.8" font-family="monospace" font-size="14.00" fill="#000000">'entry</text>
</g>
<!-- loop -->
<g id="node2" class="node">
<title>loop</title>
<polygon fill="none" stroke="#000000" points="54,-108 0,-108 0,-72 54,-72 54,-108"/>
<text text-anchor="middle" x="27" y="-85.8" font-family="monospace" font-size="14.00" fill="#000000">'loop</text>
</g>
<!-- entry&#45;&gt;loop -->
<g id="edge1" class="edge">
<title>entry-&gt;loop</title>
<path fill="none" stroke="#000000" d="M27,-143.8314C27,-136.131 27,-126.9743 27,-118.4166"/>
<polygon fill="#000000" stroke="#000000" points="30.5001,-118.4132 27,-108.4133 23.5001,-118.4133 30.5001,-118.4132"/>
</g>
<!-- loop&#45;&gt;loop -->
<g id="edge2" class="edge">
<title>loop-&gt;loop</title>
<path fill="none" stroke="#000000" d="M54.2408,-103.4868C64.0239,-103.7769 72,-99.2813 72,-90 72,-84.1992 68.8843,-80.2678 64.1591,-78.2058"/>
<polygon fill="#000000" stroke="#000000" points="64.6871,-74.7454 54.2408,-76.5132 63.5094,-81.6456 64.6871,-74.7454"/>
</g>
<!-- exit -->
<g id="node3" class="node">
<title>exit</title>
<polygon fill="none" stroke="#000000" points="54,-36 0,-36 0,0 54,0 54,-36"/>
<text text-anchor="middle" x="27" y="-13.8" font-family="monospace" font-size="14.00" fill="#000000">'exit</text>
</g>
<!-- loop&#45;&gt;exit -->
<g id="edge3" class="edge">
<title>loop-&gt;exit</title>
<path fill="none" stroke="#000000" d="M27,-71.8314C27,-64.131 27,-54.9743 27,-46.4166"/>
<polygon fill="#000000" stroke="#000000" points="30.5001,-46.4132 27,-36.4133 23.5001,-46.4133 30.5001,-46.4132"/>
</g>
</g>
</svg>