<?xml version="1.0" encoding="UTF-8" standalone="no"?>
<!DOCTYPE svg PUBLIC "-//W3C//DTD SVG 1.1//EN"
 "http://www.w3.org/Graphics/SVG/1.1/DTD/svg11.dtd">
<!-- Generated by graphviz version 9.0.0 (0)
 -->
<!-- Title: G Pages: 1 -->
<svg width="148pt" height="263pt"
 viewBox="0.00 0.00 148.38 262.89" xmlns="http://www.w3.org/2000/svg" xmlns:xlink="http://www.w3.org/1999/xlink">
<g id="graph0" class="graph" transform="scale(1 1) rotate(0) translate(4 258.89)">
<title>G</title>
<polygon fill="white" stroke="none" points="-4,4 -4,-258.89 144.38,-258.89 144.38,4 -4,4"/>
<!-- g -->
<g id="node1" class="node">
<title>g</title>
<ellipse fill="none" stroke="black" cx="67.62" cy="-235.45" rx="19.45" ry="19.45"/>
<text text-anchor="middle" x="67.62" y="-231.9" font-family="Monospace" font-size="14.00">Γ</text>
</g>
<!-- a -->
<g id="node2" class="node">
<title>a</title>
<polygon fill="none" stroke="black" points="100.38,-180 34.88,-180 34.88,-144 100.38,-144 100.38,-180"/>
<text text-anchor="middle" x="67.62" y="-158.45" font-family="Monospace" font-size="14.00">&#39;entry</text>
</g>
<!-- g&#45;&gt;a -->
<g id="edge1" class="edge">
<title>g&#45;&gt;a</title>
<path fill="none" stroke="black" d="M67.62,-215.67C67.62,-208.34 67.62,-199.77 67.62,-191.69"/>
<polygon fill="black" stroke="black" points="71.13,-191.93 67.63,-181.93 64.13,-191.93 71.13,-191.93"/>
</g>
<!-- b -->
<g id="node3" class="node">
<title>b</title>
<polygon fill="none" stroke="black" points="57.25,-108 0,-108 0,-72 57.25,-72 57.25,-108"/>
<text text-anchor="middle" x="28.62" y="-86.45" font-family="Monospace" font-size="14.00">&#39;left</text>
</g>
<!-- a&#45;&gt;b -->
<g id="edge2" class="edge">
<title>a&#45;&gt;b</title>
<path fill="none" stroke="black" d="M57.98,-143.7C53.69,-135.98 48.52,-126.71 43.73,-118.11"/>
<polygon fill="black" stroke="black" points="46.82,-116.46 38.89,-109.43 40.7,-119.87 46.82,-116.46"/>
</g>
<!-- c -->
<g id="node4" class="node">
<title>c</title>
<polygon fill="none" stroke="black" points="140.38,-108 74.88,-108 74.88,-72 140.38,-72 140.38,-108"/>
<text text-anchor="middle" x="107.62" y="-86.45" font-family="Monospace" font-size="14.00">&#39;right</text>
</g>
<!-- a&#45;&gt;c -->
<g id="edge3" class="edge">
<title>a&#45;&gt;c</title>
<path fill="none" stroke="black" d="M77.51,-143.7C81.97,-135.9 87.33,-126.51 92.29,-117.83"/>
<polygon fill="black" stroke="black" points="95.18,-119.84 97.1,-109.42 89.1,-116.36 95.18,-119.84"/>
</g>
<!-- d -->
<g id="node5" class="node">
<title>d</title>
<polygon fill="none" stroke="black" points="96.25,-36 39,-36 39,0 96.25,0 96.25,-36"/>
<text text-anchor="middle" x="67.62" y="-14.45" font-family="Monospace" font-size="14.00">&#39;exit</text>
</g>
<!-- b&#45;&gt;d -->
<g id="edge4" class="edge">
<title>b&#45;&gt;d</title>
<path fill="none" stroke="black" d="M38.27,-71.7C42.56,-63.98 47.73,-54.71 52.52,-46.11"/>
<polygon fill="black" stroke="black" points="55.55,-47.87 57.36,-37.43 49.43,-44.46 55.55,-47.87"/>
</g>
<!-- c&#45;&gt;d -->
<g id="edge5" class="edge">
<title>c&#45;&gt;d</title>
<path fill="none" stroke="black" d="M97.74,-71.7C93.28,-63.9 87.92,-54.51 82.96,-45.83"/>
<polygon fill="black" stroke="black" points="86.15,-44.36 78.15,-37.42 80.07,-47.84 86.15,-44.36"/>
</g>
</g>
</svg>
