<?xml version="1.0" encoding="UTF-8" standalone="no"?>
<!DOCTYPE svg PUBLIC "-//W3C//DTD SVG 1.1//EN"
 "http://www.w3.org/Graphics/SVG/1.1/DTD/svg11.dtd">
<!-- Generated by graphviz version 9.0.0 (0)
 -->
<!-- Title: G Pages: 1 -->
<svg width="166pt" height="214pt"
 viewBox="0.00 0.00 166.00 214.39" xmlns="http://www.w3.org/2000/svg" xmlns:xlink="http://www.w3.org/1999/xlink">
<g id="graph0" class="graph" transform="scale(1 1) rotate(0) translate(4 210.39)">
<title>G</title>
<polygon fill="white" stroke="none" points="-4,4 -4,-210.39 162,-210.39 162,4 -4,4"/>
<g id="clust1" class="cluster">
<title>cluster_l</title>
<polygon fill="none" stroke="black" points="8,-8 8,-87.5 150,-87.5 150,-8 8,-8"/>
<text text-anchor="middle" x="79" y="-70.2" font-family="Monospace" font-size="14.00">L</text>
</g>
<!-- g -->
<g id="node1" class="node">
<title>g</title>
<ellipse fill="none" stroke="black" cx="79" cy="-186.95" rx="19.45" ry="19.45"/>
<text text-anchor="middle" x="79" y="-183.4" font-family="Monospace" font-size="14.00">Γ</text>
</g>
<!-- a -->
<g id="node2" class="node">
<title>a</title>
<polygon fill="none" stroke="black" points="106,-131.5 52,-131.5 52,-95.5 106,-95.5 106,-131.5"/>
<text text-anchor="middle" x="79" y="-109.95" font-family="Monospace" font-size="14.00">t</text>
</g>
<!-- g&#45;&gt;a -->
<g id="edge1" class="edge">
<title>g&#45;&gt;a</title>
<path fill="none" stroke="black" d="M79,-167.17C79,-159.84 79,-151.27 79,-143.19"/>
<polygon fill="black" stroke="black" points="82.5,-143.43 79,-133.43 75.5,-143.43 82.5,-143.43"/>
</g>
<!-- b -->
<g id="node3" class="node">
<title>b</title>
<polygon fill="none" stroke="black" points="142,-52 88,-52 88,-16 142,-16 142,-52"/>
<text text-anchor="middle" x="115" y="-30.45" font-family="Monospace" font-size="14.00">&#39;0</text>
</g>
<!-- a&#45;&gt;b -->
<g id="edge2" class="edge">
<title>a&#45;&gt;b</title>
<path fill="none" stroke="black" d="M86.99,-95.3C91.43,-85.73 97.07,-73.6 102.12,-62.73"/>
<polygon fill="black" stroke="black" points="105.23,-64.34 106.27,-53.79 98.88,-61.39 105.23,-64.34"/>
</g>
<!-- c -->
<g id="node4" class="node">
<title>c</title>
<polygon fill="none" stroke="black" points="70,-52 16,-52 16,-16 70,-16 70,-52"/>
<text text-anchor="middle" x="43" y="-30.45" font-family="Monospace" font-size="14.00">&#39;1</text>
</g>
<!-- a&#45;&gt;c -->
<g id="edge3" class="edge">
<title>a&#45;&gt;c</title>
<path fill="none" stroke="black" d="M71.01,-95.3C66.57,-85.73 60.93,-73.6 55.88,-62.73"/>
<polygon fill="black" stroke="black" points="59.12,-61.39 51.73,-53.79 52.77,-64.34 59.12,-61.39"/>
</g>
</g>
</svg>
